<?xml version="1.0" encoding="iso-8859-1"?>
<!-- Generator: Adobe Illustrator 19.0.0, SVG Export Plug-In . SVG Version: 6.00 Build 0)  -->
<svg version="1.1" id="Capa_1" xmlns="http://www.w3.org/2000/svg" xmlns:xlink="http://www.w3.org/1999/xlink" x="0px" y="0px"
	 viewBox="0 0 489 489" style="enable-background:new 0 0 489 489;" xml:space="preserve">
<g>
	<g>
		<g>
			<g>
				<path d="M20.8,489C9.4,489,0,479.6,0,468.2V20.8C0,9.4,9.4,0,20.8,0s20.8,9.4,20.8,20.8v448.4C40.6,479.6,31.2,489,20.8,489z"/>
			</g>
			<g>
				<path d="M110.3,489c-11.4,0-20.8-9.4-20.8-20.8v-334c0-11.4,9.4-20.8,20.8-20.8s20.8,9.4,20.8,20.8v335
					C130.1,479.6,121.7,489,110.3,489z"/>
			</g>
			<g>
				<path d="M199.8,489c-11.4,0-20.8-9.4-20.8-20.8V292.4c0-11.4,9.4-20.8,20.8-20.8s20.8,9.4,20.8,20.8v175.8
					C219.5,479.6,211.2,489,199.8,489z"/>
			</g>
			<g>
				<path d="M289.2,489c-11.4,0-20.8-9.4-20.8-20.8V20.8c0-11.4,9.4-20.8,20.8-20.8S310,9.4,310,20.8v448.4
					C310.1,479.6,300.7,489,289.2,489z"/>
			</g>
			<g>
				<path d="M378.7,489c-11.4,0-20.8-9.4-20.8-20.8v-334c0-11.4,9.4-20.8,20.8-20.8s20.8,9.4,20.8,20.8v335
					C399.5,479.6,390.2,489,378.7,489z"/>
			</g>
			<g>
				<path d="M468.2,489c-11.4,0-20.8-9.4-20.8-20.8V223.7c0-11.4,9.4-20.8,20.8-20.8s20.8,9.4,20.8,20.8v245.5
					C489,479.6,479.6,489,468.2,489z"/>
			</g>
		</g>
	</g>
</g>
<g>
</g>
<g>
</g>
<g>
</g>
<g>
</g>
<g>
</g>
<g>
</g>
<g>
</g>
<g>
</g>
<g>
</g>
<g>
</g>
<g>
</g>
<g>
</g>
<g>
</g>
<g>
</g>
<g>
</g>
</svg>
